<?xml version="1.0" standalone="no"?>
<!DOCTYPE svg PUBLIC "-//W3C//DTD SVG 1.1//EN" "http://www.w3.org/Graphics/SVG/1.1/DTD/svg11.dtd" >
<svg xmlns="http://www.w3.org/2000/svg">
<metadata></metadata>
<defs>
<font id="umtypewriterbook" horiz-adv-x="1075" >
<font-face units-per-em="2048" ascent="1638" descent="-410" />
<missing-glyph horiz-adv-x="500" />
<glyph d="M90 72v1136q0 44 12 58t60 14h749q47 0 59 -14t13 -58v-1136q0 -48 -12 -60t-60 -12h-749q-47 0 -60 12q-12 12 -12 60zM178 88h717v1104h-717v-1104z" />
<glyph d="M90 72v1136q0 44 12 58t60 14h749q47 0 59 -14t13 -58v-1136q0 -48 -12 -60t-60 -12h-749q-47 0 -60 12q-12 12 -12 60zM178 88h717v1104h-717v-1104z" />
<glyph unicode="&#xd;" />
<glyph unicode=" " />
<glyph unicode="!" d="M434 102q0 40 29 74q33 29 74 29t73 -29q29 -33 29 -74t-29 -73q-34 -29 -74 -29t-73 29q-29 33 -29 73zM434 1157q0 51 24 79t42 34q29 4 37 4t36 -4q18 -6 42 -34t24 -79l-10 -328l-8 -354q-3 -63 -17 -81t-67 -17q-78 0 -82 53l-6 248z" />
<glyph unicode="&#x22;" d="M264 1161q-4 59 25 86t65 27t64 -25q30 -25 28 -88l-26 -418q-4 -72 -64 -71q-61 0 -65 73zM627 1161q-4 59 24 86q29 27 65 27t66 -25t27 -88l-27 -418q-4 -72 -63 -71q-63 0 -66 73z" />
<glyph unicode="#" d="M72 406q0 72 96 71h100l37 299h-137q-96 0 -96 72t96 72h158l30 247q6 84 74 84q32 -1 54 -23t16 -73l-29 -235h211l31 247q6 84 73 84q31 -1 54 -23t16 -73l-29 -235h78q96 0 96 -72t-96 -72h-98l-37 -299h135q96 1 96 -71t-96 -72h-155l-33 -250q-16 -84 -74 -84 q-27 0 -51 20q-20 23 -21 52l33 262h-211l-33 -250q-16 -84 -73 -84q-27 0 -51 20q-20 23 -21 52l33 262h-80q-96 0 -96 72zM414 477h211l37 299h-211z" />
<glyph unicode="$" d="M119 340q1 102 105 102q22 0 50 -26t27 -72q0 -45 -33 -65q41 -139 207 -162v475q-98 18 -170 56q-73 38 -107 77t-55 83t-20 69q-4 16 -4 49q0 119 96 217t260 117v77q1 84 63 84t62 -84v-75q174 -16 264 -108t90 -218q0 -53 -28 -76q-25 -24 -65 -24q-41 0 -65 26 t-24 67q0 40 31 64q-41 121 -203 142v-426q109 -23 178 -66q78 -43 111 -98q65 -95 65 -204q0 -110 -89 -215t-265 -134v-78q0 -84 -62 -84t-63 84v76q-170 16 -262 116q-94 96 -94 234zM250 935q0 -75 65 -128q66 -58 160 -72v400q-98 -16 -160 -72q-65 -53 -65 -128z M600 119q96 13 160 79t63 145q0 79 -60 140t-163 82v-446z" />
<glyph unicode="%" d="M72 1149q0 117 52 195t125 77q73 0 128 -78q51 -79 51 -196t-52 -195t-125 -78t-128 78q-51 80 -51 197zM178 -108q0 24 12 55l560 1411q27 63 73 63q27 0 51 -20q21 -21 21 -43t-12 -53l-561 -1416q-23 -59 -64 -59t-57 23q-23 15 -23 39zM186 1146q0 -64 23 -102 q18 -43 41 -43t41 43q22 38 22 102q1 64 -21 106t-42 42t-42 -42t-22 -106zM645 102q0 116 52 195q52 78 126 78t126 -78t52 -195q0 -116 -52 -194t-126 -78t-126 78t-52 194zM760 102q0 -66 22 -102q18 -43 41 -43t41 43q23 36 23 102t-23 103q-18 43 -41 43t-41 -43 q-22 -37 -22 -103z" />
<glyph unicode="&#x26;" d="M57 281q0 125 72 215l33 32q10 12 33 37t39 43t34 37q-57 171 -57 325t63 226q62 78 154 78t138 -83t46 -198q0 -166 -206 -383q33 -92 151 -282q57 115 178 430q-29 0 -43 3t-24 17q-16 10 -17 43q0 61 82 62h189q82 -1 82 -63t-82 -62h-64l-123 -320 q-51 -125 -104 -217q88 -119 172 -119q70 0 80 117q0 63 57 64q20 -1 38 -19t19 -49q0 -86 -51 -162t-143 -76q-121 0 -240 144q-117 -143 -241 -143t-194 88q-70 90 -71 215zM199 277q0 -81 36 -128t76 -47q96 0 178 119q-37 51 -90 148q-57 94 -82 147q-76 -86 -97 -122 t-21 -117zM326 956q0 -100 32 -211q140 158 140 248q0 29 -3 43t-5 24q-14 88 -66 89q-41 0 -68 -45q-30 -48 -30 -148z" />
<glyph unicode="'" d="M444 1182q0 40 27 66t66 26t67 -28t23 -89l-27 -409q0 -76 -64 -76t-63 76l-24 393z" />
<glyph unicode="(" d="M354 627q0 147 45 284t105 224q128 175 254 256q92 52 123 10q14 -16 14 -44t-18 -34l-29 -20q-127 -88 -213 -213q-86 -135 -113 -244t-26 -219q0 -187 85 -371t263 -303q8 -4 25 -17t21 -22q5 -9 5 -27t-14 -36q-13 -19 -51 -19t-138 78q-96 82 -172 186 q-166 238 -166 531z" />
<glyph unicode=")" d="M180 1358q0 26 17 43q12 20 50 20t135 -79t173 -185q166 -235 166 -530q0 -150 -45 -286q-71 -216 -238 -380q-136 -129 -200 -129q-28 0 -41 21q-47 47 30 98q185 125 269 307t84 369q0 57 -12 133q-32 215 -158 375q-86 104 -197 178q-33 19 -33 45z" />
<glyph unicode="*" d="M139 438q1 30 9 36q8 7 10 9t3 4t3 5q4 2 12 7t14 7l222 121l-224 121q-49 26 -49 58q1 32 21 53q39 40 94 3l221 -129q-6 80 -6 248q0 86 68 86t67 -86q0 -168 -6 -248l254 148q82 0 82 -68q0 -37 -51 -68l-221 -120q23 -14 103 -53q81 -40 145 -80q24 -16 24 -48 q0 -33 -21 -51q-32 -46 -122 10q-190 115 -193 115q6 -80 6 -248q0 -86 -68 -86t-67 86q0 168 6 248l-254 -147q-82 0 -82 67z" />
<glyph unicode="+" d="M78 627q0 72 96 71h291v293q0 96 72 96t71 -96v-293h291q96 1 96 -71t-96 -72h-291v-293q0 -96 -72 -96t-71 96v293h-291q-96 0 -96 72z" />
<glyph unicode="," d="M369 -219q0 43 57 57q121 41 152 168q-20 -6 -57 -6t-75 35t-36 89q0 54 34 93t99 39q66 0 116 -58t50 -147q0 -147 -103 -241q-96 -94 -172 -95q-25 1 -45 21t-20 45z" />
<glyph unicode="-" d="M115 627q0 72 96 71h651q96 1 96 -71t-96 -72h-651q-96 0 -96 72z" />
<glyph unicode="." d="M410 125q0 51 36 92q36 39 90 39t92 -37t38 -89t-37 -91t-89 -39t-94 37q-36 37 -36 88z" />
<glyph unicode="/" d="M119 -108q0 20 16 59l676 1413q27 57 72 57q27 0 51 -20q20 -21 20 -41t-16 -60l-676 -1413q-27 -57 -65 -57t-58 23q-20 19 -20 39z" />
<glyph unicode="0" d="M102 624q0 278 129 463q129 187 305 187t305 -185q130 -185 130 -461t-129 -462q-129 -188 -304 -188t-305 186q-131 182 -131 460zM244 644q0 -222 86 -382t207 -160t207 160t85 383q0 223 -89 363q-90 140 -204 141q-114 0 -204 -141q-88 -142 -88 -364z" />
<glyph unicode="1" d="M215 960q0 62 76 64q141 16 223 201q23 49 61 49q61 0 62 -84v-1065h186q29 0 41 -3q12 -4 26 -18t15 -43q0 -61 -82 -61h-514q-82 0 -82 62t82 63h187v864q-106 -90 -213 -90q-68 -1 -68 61z" />
<glyph unicode="2" d="M106 63q0 27 31 56l453 381q236 197 235 374q0 131 -95 203t-230 72q-84 0 -152 -44t-88 -114q29 -23 29 -63t-28 -68q-54 -52 -126 -4q-29 25 -29 76q0 137 114 239q114 103 297 103t317 -110t133 -290q0 -211 -224 -409q-49 -47 -177 -152t-228 -188h487q0 43 2 54 q1 11 17 27t58 15t53 -23t12 -61v-53q-1 -48 -17 -66t-65 -18h-695q-84 0 -84 63z" />
<glyph unicode="3" d="M90 279q0 47 27 71t65 25q38 0 65 -27q25 -26 25 -64t-24 -63q35 -66 123 -90q84 -29 170 -29q137 0 217 78q84 74 84 175t-84 177q-80 80 -223 80h-95q-29 0 -37 2t-30 17q-15 20 -15 54t28 43t136 15t184 70t76 170q0 70 -69 119q-70 47 -172 47q-164 0 -228 -64 q19 -18 19 -57q0 -38 -27 -64t-63 -26t-65 25q-28 25 -27 71q0 108 103 174t281 66t281 -86q109 -82 109 -203q0 -86 -44 -167t-128 -134q102 -45 166 -132t65 -196q0 -152 -125 -266q-126 -114 -320 -113q-194 0 -319 84q-129 80 -129 218z" />
<glyph unicode="4" d="M60 424q0 46 18 76l467 733q18 31 33 37q16 6 53 6h57q52 0 68 -16t16 -68v-721h160q29 0 41 -3q13 -3 27 -17t14 -43q0 -61 -82 -62h-160v-221h127q29 0 37 -2t31 -17q14 -20 14 -45q0 -61 -82 -61h-369q-82 0 -81 61q0 25 14 45q23 14 31 16t36 3h127v221h-516 q-49 0 -65 16t-16 62zM203 471h454v715z" />
<glyph unicode="5" d="M106 291q0 53 31 76q64 47 125 -2q27 -27 27 -67t-27 -67q66 -129 246 -129q127 0 225 82q92 86 92 201q1 115 -69 201t-191 86q-172 0 -258 -103q-25 -31 -68 -30t-57 43q-2 10 -2 41v544q0 49 16 67t66 17h551q29 0 37 -2t31 -16q14 -23 14 -45q0 -61 -82 -62h-491 v-389q113 59 245 60q174 0 287 -122t113 -289t-133 -288q-132 -121 -314 -121q-182 1 -298 93t-116 221z" />
<glyph unicode="6" d="M109 612q1 298 165 480t383 182q137 0 205 -64t68 -147q0 -45 -27 -71t-65 -26t-65 28q-25 26 -25 64t20 58q-33 33 -113 33q-143 0 -261 -124t-140 -333q131 119 302 119t290 -121t119 -297t-125 -297q-127 -119 -299 -119t-291 134q-143 147 -141 501zM270 460 q0 -90 17 -132q74 -225 254 -226q117 0 199 83t83 208q0 125 -78 205q-75 86 -193 86t-200 -67t-82 -157z" />
<glyph unicode="7" d="M90 1114v86q0 31 2 42q2 10 18 26t59 16q44 0 56 -33h676q82 0 82 -60q0 -26 -9 -37t-49 -50q-292 -285 -397 -723q-35 -150 -39 -322q0 -41 -20 -61t-49 -21q-72 -1 -72 93q0 207 78 471q41 135 131 299q98 166 215 286h-541q0 -41 -3 -54q-10 -42 -63 -42q-54 0 -63 23 q-12 18 -12 61z" />
<glyph unicode="8" d="M90 356q0 113 83 199t202 119q-123 42 -190 112t-66 160q0 127 119 230q123 98 299 98t299 -98q119 -100 118 -230q0 -88 -68 -161t-188 -111q119 -33 202 -119t83 -199q0 -150 -127 -266q-131 -113 -318 -113t-319 113q-129 117 -129 266zM231 356q0 -102 88 -180 q91 -74 217 -74t218 74q88 78 88 179t-84 182q-88 75 -220 75t-220 -76t-87 -180zM260 941q0 -85 83 -144t195 -59t193 61q82 57 82 142t-80 146q-79 61 -197 61t-197 -60q-79 -62 -79 -147z" />
<glyph unicode="9" d="M108 858q0 178 129 297q128 119 306 119q161 0 283 -130q62 -66 100 -197q38 -130 39 -308q0 -295 -157 -478t-366 -184q-92 0 -155 23q-61 18 -94 59q-93 135 -23 199q27 27 66 27q38 0 64 -27q26 -28 26 -64t-19 -57q47 -35 135 -35q141 0 254 131q109 139 123 326 q-131 -119 -302 -119t-290 120t-119 298zM250 860q0 -125 76 -209t200 -84t201 71q78 71 78 165q1 94 -15 143t-69 115q-71 88 -183 88t-200 -82t-88 -207z" />
<glyph unicode=":" d="M410 125q0 51 36 92q36 39 90 39t92 -37t38 -89t-37 -91t-89 -39t-94 37q-36 37 -36 88zM410 752q0 51 36 92q36 39 90 39t92 -37t38 -89t-37 -91t-89 -39t-94 37q-36 37 -36 88z" />
<glyph unicode=";" d="M369 -216q0 28 41 50q106 59 135 166q-70 0 -103 39q-32 39 -32 91t34 89t94 37t99 -52t39 -149q0 -152 -94 -243q-90 -96 -148 -97q-25 1 -45 21t-20 48zM410 752q0 51 36 92q36 39 90 39t92 -37t38 -89t-37 -91t-89 -39t-94 37q-36 37 -36 88z" />
<glyph unicode="&#x3c;" d="M115 627q0 37 45 67l674 424q65 39 102 0q22 -18 22 -54t-49 -67l-587 -370l587 -371q49 -31 49 -67t-21 -55t-45 -19t-58 20l-682 428q-37 27 -37 64z" />
<glyph unicode="=" d="M78 471q0 72 92 72h733q92 0 92 -72t-104 -72h-709q-104 0 -104 72zM78 782q0 72 104 72h709q104 0 104 -72t-92 -71h-733q-92 -1 -92 71z" />
<glyph unicode="&#x3e;" d="M114 189q0 36 50 67l588 371l-588 370q-49 31 -49 67t21 55q42 38 104 -1l682 -428q36 -28 36 -64t-45 -67l-673 -424q-33 -20 -58 -20t-45 20q-23 18 -23 54z" />
<glyph unicode="?" d="M127 1014q0 98 94 174q96 76 295 76q125 0 225 -27q98 -33 138 -78t51 -76q16 -32 16 -73q0 -125 -135 -199q-223 -123 -223 -317v-35q0 -53 -19 -66q-14 -16 -67 -16t-66 20q-12 19 -12 75t2 70t16 81q22 59 48 96t88 92t122 89t62 34q43 33 43 80t-72 88 q-71 37 -225 37t-219 -72q20 -23 20 -59t-26 -66q-31 -24 -67 -24t-62 26t-27 70zM403 102q0 42 30 73q30 30 73 30q42 0 72 -30t30 -73q0 -42 -30 -72t-72 -30q-43 0 -73 30t-30 72z" />
<glyph unicode="@" d="M90 626q0 270 159 454q159 183 374 184q360 0 360 -607q0 -325 -209 -419q-41 -20 -88 -21q-117 0 -207 115q-88 115 -88 291t87 294t210 117q68 0 131 -41q-55 145 -196 146q-164 -1 -291 -147t-127 -365t127 -365q123 -150 293 -149q125 0 219 88q20 20 61 20 q78 0 78 -57q0 -48 -112 -112t-244 -64q-221 0 -377 184q-160 184 -160 454zM506 628q0 -120 55 -204q51 -82 124 -82t128 81t55 202t-55 203t-126 81q-71 0 -126 -81q-55 -80 -55 -200z" />
<glyph unicode="A" d="M55 61q0 41 35 60q16 4 88 4l248 1073q8 37 22 52t35 24l54 2l53 -2q23 -8 33 -23q14 -14 24 -55l248 -1071q76 0 88 -6q35 -17 35 -58q0 -61 -88 -61h-209q-54 0 -70 16t-16 46t13 43q14 13 32 17q14 3 51 3h19l-48 213h-331l-47 -213q52 0 70 -3t28 -16q16 -14 16 -44 t-16 -46t-70 -16h-209q-88 0 -88 61zM401 463h271l-135 643z" />
<glyph unicode="B" d="M47 62q0 62 84 63h55v1001h-55q-84 0 -84 62t82 63h463q160 0 256 -98q96 -99 96 -205t-60 -183t-161 -110q123 -29 193 -118t71 -207q0 -118 -95 -224t-259 -106h-504q-82 0 -82 62zM328 125h260h4q119 0 186 67q68 68 68 154t-60 164t-176 78h-282v-463zM328 713h211 q135 1 199 71t65 144q0 74 -51 136t-168 62h-256v-413z" />
<glyph unicode="C" d="M82 626q0 274 147 461q143 186 346 187q150 0 267 -98q26 43 26 55q4 4 4 8q25 35 58 35q61 0 61 -84v-285q0 -31 -2 -42t-18 -26t-48 -15q-31 0 -49 11q-18 12 -18 21q-4 6 -8 35q-22 121 -94 191q-71 69 -167 69h-3q-139 0 -252 -150q-109 -155 -109 -375t109 -371 t254 -151q84 0 170 58q86 63 94 192q4 60 72 60t69 -68q0 -141 -120 -254t-293 -113h-2q-203 0 -348 187q-146 188 -146 462z" />
<glyph unicode="D" d="M39 62q0 62 84 63h45v1001h-45q-84 0 -84 62t84 63h422q195 0 323 -190q125 -191 125 -442t-125 -439q-131 -180 -323 -180h-422q-84 0 -84 62zM309 125h197q162 0 254 148t92 343t-92 355q-93 155 -252 155h-2h-197v-1001z" />
<glyph unicode="E" d="M53 62q0 62 84 63h62v1001h-62q-84 0 -84 62t84 63h764q53 0 66 -18q16 -14 16 -66v-149q0 -31 -2 -42q-2 -10 -18 -26q-17 -16 -57 -16t-54 20q-10 27 -10 64v108h-502v-415h268l2 71q8 23 20 34t55 11q42 -1 53 -23t12 -61v-190q0 -31 -2 -42t-18 -27t-57 -15 q-42 0 -55 23q-10 25 -10 94h-268v-461h547v141q0 31 2 43q2 13 18 27t58 14t51 -22q12 -18 12 -62v-182q0 -47 -16 -68q-16 -16 -66 -16h-809q-84 0 -84 62z" />
<glyph unicode="F" d="M57 62q0 62 84 63h68v1001h-68q-84 0 -84 62t84 63h781q53 0 65 -18q16 -14 17 -66v-149q0 -31 -2 -42q-2 -10 -19 -26q-16 -16 -56 -16t-55 20q-10 27 -10 64v108h-512v-438h279l2 70q6 25 20 33q12 14 55 14t52 -23q12 -18 12 -61v-191q0 -31 -2 -42t-17 -26 q-15 -16 -57 -16t-55 23q-10 25 -10 94h-279v-438h107q29 0 37 -2t30 -17q14 -20 15 -45q0 -61 -82 -61h-316q-84 0 -84 62z" />
<glyph unicode="G" d="M78 626q0 276 135 461q135 186 322 187q133 0 239 -92q25 59 39 75q16 16 45 17q61 0 62 -84v-285q0 -31 -2 -43t-18 -26t-52 -15q-63 0 -70 60q-24 147 -94 207t-141 61q-125 0 -225 -150q-99 -150 -99 -369q0 -226 96 -377t226 -151q88 0 151 80t82 246h-86 q-47 0 -64 17t-18 47q0 61 82 61h244q84 0 84 -61q0 -52 -47 -62q-10 -2 -49 -2v-344q0 -31 -2 -42q-2 -10 -18 -26t-50 -16q-35 0 -51 15q-17 15 -19 27t-2 44q-96 -109 -243 -109q-185 1 -321 187t-136 462z" />
<glyph unicode="H" d="M45 61q0 49 45 62q8 2 37 2h51v1001h-51q-82 0 -82 62q0 50 45 61q8 2 37 2h244q29 0 37 -2t30 -16q14 -23 15 -45q0 -61 -82 -62h-52v-413h435v413h-52q-28 0 -40 3t-26 17t-15 44q0 61 81 61h244q82 0 82 -62t-82 -63h-51v-1001h51q29 0 41 -3q13 -4 27 -18t14 -43 q0 -61 -82 -61h-244q-28 0 -40 3t-27 17q-14 14 -14 43q0 61 81 62h52v463h-435v-463h52q29 0 37 -2t30 -17q14 -23 15 -45q0 -61 -82 -61h-244q-82 0 -82 61z" />
<glyph unicode="I" d="M162 62q0 62 84 63h221v1001h-221q-84 0 -84 62t84 63h583q84 0 84 -62t-84 -63h-221v-1001h221q84 -1 84 -63t-84 -62h-583q-84 0 -84 62z" />
<glyph unicode="J" d="M145 203q0 47 28 71t66 25q37 0 63 -27q26 -26 26 -60t-17 -56q59 -53 174 -54q44 0 74 10q29 10 43 15q39 20 66 57q25 39 24 103v839h-168q-84 0 -84 62t84 63h371q84 0 84 -62t-84 -63h-61v-852q0 -133 -102 -215t-250 -82h-5q-144 0 -237 63q-94 64 -95 163z" />
<glyph unicode="K" d="M53 62q0 62 84 63h45v1001h-45q-84 0 -84 62t84 63h205q84 0 84 -62t-84 -63h-45v-544l432 544q-84 0 -84 62t84 63h180q84 0 84 -61q0 -51 -51 -62q-14 -2 -65 -2l-312 -393l328 -583q0 -11 14 -25q45 0 62 -3q45 -8 45 -61q0 -61 -84 -61h-154q-84 0 -84 62t82 63 l-287 512l-190 -240v-272h45q84 -1 84 -63t-84 -62h-205q-84 0 -84 62z" />
<glyph unicode="L" d="M111 123q8 2 36 2h76v1001h-76q-81 0 -81 61v1q0 50 45 61q8 2 36 2h332q84 0 84 -62t-84 -63h-114v-1001h493v141q0 33 2 45t21 25q14 14 56 14t50 -22q12 -18 12 -62v-182q0 -47 -16 -68q-16 -16 -65 -16h-771q-81 0 -81 60q0 50 45 63z" />
<glyph unicode="M" d="M35 61q0 27 14 45q15 12 31 16t63 3v1001q-47 0 -62 3t-32 16q-14 18 -14 45q0 61 82 61h114q80 0 101 -49q186 -561 205 -639h2q14 68 55 193l137 413q4 10 19 48q8 10 28 24q27 10 64 10h114q82 0 82 -61q0 -27 -14 -45q-16 -11 -32 -15t-62 -4v-1001q47 0 62 -3 t32 -16q14 -18 14 -45q0 -61 -82 -61h-168q-81 0 -81 60q0 28 14 46q15 12 31 16t63 3v977h-2q-9 -47 -73 -245t-80 -244t-28 -81t-18 -51t-6 -18q-28 -45 -70 -45t-63 30t-60 155q-38 124 -59 187q-48 140 -96 312h-2v-977q47 0 62 -3t32 -16q14 -18 15 -45q0 -61 -82 -61 h-168q-82 0 -82 61z" />
<glyph unicode="N" d="M57 63q0 61 82 62h51v1001h-51q-29 0 -42 3t-23 18q-16 10 -17 43q0 61 82 61h140q49 0 69 -14q25 -12 41 -59l377 -1024h2v972h-51q-82 0 -82 62q0 50 45 61q8 2 37 2h217q82 0 82 -62t-82 -63h-51v-1042q-1 -56 -17 -70t-62 -14t-54 4q-12 0 -32 16t-34 54l-377 1024 h-2v-973h51q29 0 40 -3q10 -4 26 -18t16 -43q0 -61 -82 -61h-217q-29 0 -42 3t-23 17q-16 10 -17 43z" />
<glyph unicode="O" d="M115 625q0 125 3 235t22 193q19 84 44 121q20 36 74 62t112 32q60 6 160 6t134 -4q45 0 97 -14t75 -31q26 -11 52 -53t34 -72t24 -125q12 -135 12 -305t-3 -280q-6 -223 -66 -312q-21 -35 -73 -62q-52 -26 -114 -32t-167 -6t-165 6t-112 32t-76 63q-23 36 -42 118 q-19 83 -22 193t-3 235zM256 628q0 -276 22 -367t73 -125q53 -34 185 -34t189 35q55 35 73 137q18 104 19 376q0 272 -22 360t-80 112q-53 27 -181 27t-182 -28q-54 -29 -76 -123q-20 -94 -20 -370z" />
<glyph unicode="P" d="M53 62q0 62 84 63h62v1001h-62q-84 0 -84 62t84 63h459h3q170 0 277 -113t107 -257q0 -149 -106 -267q-110 -112 -278 -112h-3h-256v-377h61q84 -1 84 -63t-84 -62h-264q-84 0 -84 62zM340 627h217q135 0 210 77t75 173t-75 173q-74 76 -207 76h-3h-217v-499z" />
<glyph unicode="Q" d="M115 625q0 125 3 235t22 193q19 84 44 121q20 36 74 62t112 32q60 6 160 6t134 -4q45 0 97 -14t75 -31q26 -11 52 -53t34 -72t24 -125q12 -135 12 -358q0 -403 -57 -521q-33 -61 -100 -88q55 -104 67 -123q63 -125 64 -131q0 -39 -66 -39h-18q-57 0 -72 25l-125 240 q-14 -2 -117 -2q-104 0 -164 6t-112 32t-76 63q-23 36 -42 118q-19 83 -22 193t-3 235zM256 638q0 -264 16 -360t66 -136t182 -40h66l-94 183q-8 14 -9 26q0 39 66 39h22q31 0 37 -4t25 -29l98 -178q29 23 42 44t29 128q15 101 15 310v27q0 230 -16 331q-16 102 -72 135 q-53 35 -191 35t-190 -33t-72 -124t-20 -354z" />
<glyph unicode="R" d="M45 61q0 49 45 62q8 2 37 2h51v1001h-51q-82 0 -82 62q0 50 45 61q8 2 37 2h362q174 0 285 -104q113 -100 113 -240q0 -75 -40 -153t-134 -131q74 -61 96 -117t22 -201v-80q3 -37 7 -65q7 -56 51 -58q39 0 39 93q2 61 72 61q69 0 69 -66q0 -70 -45 -143q-49 -70 -133 -70 q-111 0 -162 95q-27 45 -33 95t-6 155t-14 137q-4 20 -31 47q-63 57 -166 57h-160v-438h52q29 0 37 -2t30 -17q14 -23 15 -45q0 -61 -82 -61h-244q-82 0 -82 61zM319 688h148q131 0 205 68t73 151q0 84 -73 152q-73 67 -201 67h-4h-148v-438z" />
<glyph unicode="S" d="M106 61v271q0 31 2 42t19 26q16 15 51 16q70 0 70 -72q6 -119 98 -180q92 -62 222 -62t198 70t68 158q0 182 -228 231l-235 55q-119 33 -195 125q-70 92 -70 211t107 222q109 100 277 100t284 -96q13 52 37 84q18 12 39 12q61 0 61 -84v-270q0 -31 -2 -43q-2 -13 -18 -27 t-51 -14q-61 0 -70 57t-35 110q-25 51 -51 77t-79 48q-52 21 -132 21h-7q-85 0 -157 -59q-69 -60 -69 -136t45 -127t118 -73l166 -37q127 -29 185 -53t114 -80q99 -109 99 -247t-107 -251q-113 -109 -278 -109q-213 0 -338 95q-16 -57 -31 -74q-12 -20 -45 -21q-61 0 -62 84 z" />
<glyph unicode="T" d="M53 1018v149q1 51 17 67t67 17h801q53 0 66 -18q16 -14 16 -66v-149q0 -31 -2 -42q-2 -10 -18 -26t-57 -16q-40 0 -54 20q-10 27 -10 64v108h-271v-1001h107q29 0 37 -2t30 -17q14 -20 15 -45q0 -61 -82 -61h-355q-30 0 -42 3t-23 17q-16 10 -16 43q0 61 81 62h107v1001 h-272v-108q0 -31 -2 -43q-3 -13 -19 -27t-57 -14t-52 22t-12 62z" />
<glyph unicode="U" d="M8 1188q0 62 84 63h264q84 0 84 -62t-84 -63h-61v-698q0 -154 76 -240t166 -86q89 0 165 87t76 239v698h-61q-84 0 -84 62t84 63h264q84 0 84 -62t-84 -63h-61v-708q0 -184 -113 -314q-117 -127 -271 -127t-270 127q-113 129 -112 314v708h-62q-84 0 -84 62z" />
<glyph unicode="V" d="M37 1190q0 61 84 61h209q84 0 84 -61q0 -51 -52 -62q-12 -2 -63 -2l199 -796q27 -106 37 -183h2q12 78 79 353l158 626q-50 0 -68 3q-45 8 -47 61q0 61 84 61h209q84 0 84 -61q0 -51 -53 -62q-12 -2 -63 -2l-271 -1067q-9 -39 -29 -55t-32 -16q-10 -4 -52 -4t-53 4 q-16 0 -33 19t-26 54l-270 1065q-51 0 -70 3q-47 7 -47 61z" />
<glyph unicode="W" d="M23 1188q0 63 83 63h162q29 0 37 -2t31 -16q14 -23 14 -45q0 -61 -82 -62h-51l107 -811q16 -135 16 -159h2q5 85 56 308q51 224 57 243q20 45 88 45t80 -56q26 -106 66 -302q40 -197 42 -238h2q4 68 33 288l90 682h-51q-82 0 -82 62q0 25 14 45q23 14 31 16t37 2h162 q84 0 84 -62t-78 -63l-148 -1071q-10 -71 -81 -71t-85 51q-4 4 -28 125q-25 90 -58 258q-33 147 -34 182h-2q-5 -51 -63 -307t-62 -268q-22 -41 -88 -41t-76 71l-148 1071h-2q-76 0 -75 62z" />
<glyph unicode="X" d="M55 62q0 62 82 63h45l273 541l-246 460h-47q-84 0 -84 62t84 63h213q82 0 82 -61q1 -29 -15 -44q-16 -16 -28 -18t-45 -2l157 -299l146 299q-37 0 -52 3t-26 18q-16 10 -16 43q0 61 81 61h213q84 0 84 -62t-84 -63h-45l-231 -458l289 -543h47q84 -1 84 -63t-84 -62h-213 q-82 0 -82 61q0 25 14 45q23 14 32 16t46 3l-203 397l-188 -397q37 0 50 -3t30 -16q16 -20 16 -45q0 -61 -84 -61h-213q-82 0 -82 62z" />
<glyph unicode="Y" d="M39 1190q0 61 82 61h213q82 0 82 -61q0 -27 -15 -45q-16 -15 -28 -17t-51 -2q195 -412 215 -483l215 483q-39 0 -51 2t-29 17q-14 18 -15 45q0 61 82 61h213q29 0 37 -2t31 -16q14 -22 14 -45q0 -61 -82 -62h-43l-301 -626v-375h51q29 0 41 -3q12 -4 26 -18t15 -43 q0 -61 -82 -61h-243q-29 0 -41 3t-27 17q-14 14 -14 43q0 61 82 62h51v375l-303 626h-43q-29 0 -41 3t-26 17t-15 44z" />
<glyph unicode="Z" d="M98 70q0 36 21 63l674 993h-529v-108q0 -31 -2 -43q-2 -13 -18 -27t-57 -14t-53 22t-11 62v149q0 51 16 67t68 17h684q31 0 42 -2t27 -17t15 -50q0 -35 -21 -64l-673 -993h563v147q0 31 2 42q2 10 18 26t56 16t55 -20q10 -27 10 -64v-188q0 -47 -16 -68q-16 -16 -66 -16 h-721q-31 0 -42 2t-26 17q-16 15 -16 51z" />
<glyph unicode="[" d="M455 -86v1423q0 47 16 68q16 16 66 16h370q29 0 41 -3t26 -17t15 -43q0 -61 -82 -62h-311v-1341h311q29 0 41 -3q12 -4 26 -18t15 -43q0 -61 -82 -61h-370q-53 0 -66 18q-16 14 -16 66z" />
<glyph unicode="\" d="M119 1353q0 26 20 48q25 20 59 20t64 -55l678 -1415q14 -26 14 -53t-20 -45q-20 -23 -57 -23t-66 55l-678 1415q-14 27 -14 53z" />
<glyph unicode="]" d="M84 -106q0 61 82 61h311v1341h-311q-29 0 -37 2t-31 17q-14 20 -14 45q0 61 82 61h371q53 0 67 -16t14 -68v-1423q0 -48 -16 -66t-65 -18h-371q-29 0 -37 2t-31 16q-14 23 -14 46z" />
<glyph unicode="^" d="M144 1062q1 34 36 50l334 162q23 10 47 0l334 -162q53 -29 29 -81t-78 -30l-309 134l-310 -134q-33 -13 -59 7t-24 54z" />
<glyph unicode="_" d="M115 -270q0 72 96 71h651q96 1 96 -71t-96 -72h-651q-96 0 -96 72z" />
<glyph unicode="`" d="M320 1195q0 38 26 65q27 27 84 4l272 -123q32 -16 42 -29t10 -32t-16 -50t-52 -31q-12 0 -37 11l-272 120q-57 27 -57 65z" />
<glyph unicode="a" d="M113 262q0 143 169 223t445 82q0 102 -70 158q-75 51 -177 51t-126 -8q-6 -2 -8 -36t-29 -52q-25 -23 -61 -23t-63 25t-27 70q0 149 293 149h4q203 0 304 -95t101 -222v-443q45 -17 125 -17t80 -61q-1 -52 -43 -60q-16 -3 -59 -3q-174 0 -221 66q-121 -78 -286 -78 t-259 82q-92 82 -92 192zM254 262q0 -59 59 -104t159 -45t175 34q35 15 51 35t27 45l2 47v172q-223 -6 -348 -58t-125 -126z" />
<glyph unicode="b" d="M25 1188q0 63 84 63h149q53 0 66 -18q16 -14 16 -66v-372q110 100 268 100t273 -133q118 -127 118 -321t-127 -322q-123 -131 -294 -131q-135 0 -238 104q0 -39 -2 -50q-2 -10 -18 -26t-50 -16q-35 0 -51 14t-18 26t-2 44v1042h-93q-82 0 -81 62zM340 391q0 -92 61 -185 t172 -93t198 94t87 232q0 139 -79 235t-183 96t-180 -70t-76 -159v-150z" />
<glyph unicode="c" d="M150 442q0 152 104 295q49 72 145 118t226 46q305 0 305 -149q0 -43 -27 -69t-65 -26q-88 0 -90 101q0 18 -110 18q-203 0 -286 -131q-61 -115 -61 -203q0 -139 95 -234t233 -95t196 123q7 28 23 36t45 9q71 -1 71 -58q0 -50 -69 -129q-33 -45 -111 -76q-76 -30 -168 -30 h-6q-190 0 -320 133t-130 321z" />
<glyph unicode="d" d="M74 442q0 190 125 322q125 131 295 131q135 0 239 -92v323h-92q-82 0 -82 62t84 63h150q49 0 65 -18t16 -66v-1042h93q82 -1 82 -63t-84 -62h-150q-57 0 -70 20q-12 23 -12 82q-111 -114 -265 -114t-275 131q-119 133 -119 323zM215 442q0 -140 79 -234q79 -95 187 -95 t183 92q69 98 69 192v146q1 87 -67 157t-172 70t-192 -94q-87 -94 -87 -234z" />
<glyph unicode="e" d="M113 444q0 190 129 324q128 133 312 133h3q186 0 291 -123q102 -127 102 -311q0 -52 -19 -63q-22 -13 -63 -13h-610q25 -125 121 -202q95 -76 216 -76h3q160 0 213 123q7 28 23 36t45 9q71 -1 71 -56q0 -54 -85 -144q-35 -38 -113 -66q-75 -27 -162 -27h-6 q-195 0 -333 133t-138 323zM260 514h545q-12 142 -84 202t-173 60t-184 -75t-104 -187z" />
<glyph unicode="f" d="M86 62q0 62 84 63h207v633h-207q-82 0 -82 62t84 63h205v108q0 125 94 201q100 72 227 72q197 0 197 -123q0 -39 -27 -66q-30 -25 -64 -25t-50 23q-37 30 -37 66q-43 0 -58 -4q-23 0 -61 -17q-78 -25 -80 -139v-96h250q29 0 37 -2t31 -17q14 -23 14 -45q0 -61 -82 -61 h-250v-633h207q84 -1 84 -63t-84 -62h-555q-84 0 -84 62z" />
<glyph unicode="g" d="M59 -168q0 162 152 254q-47 66 -47 146t41 141q-66 83 -66 205t99 221q100 96 224 96t214 -61q95 71 214 71h3q74 0 113 -33q36 -36 36 -78t-26 -61q-22 -22 -50 -22q-24 0 -53 16q-23 14 -32 53q-63 -6 -119 -35q53 -90 53 -178q0 -137 -99 -233q-100 -96 -224 -96 t-199 51q-13 -34 -13 -62q0 -39 25 -69q25 -29 68 -29q20 -4 59 -4h143q318 0 404 -162q35 -70 35 -131q0 -129 -138 -215t-338 -86t-339 85t-140 216zM178 -168q0 -70 104 -124t255 -54q150 0 254 54t104 118t-33 103q-33 38 -110 59q-98 16 -129 18t-139 2t-145 -3 q-38 -3 -77 -30q-84 -53 -84 -143zM281 568q0 -86 58 -147t139 -61t136 62q60 57 60 143q0 87 -58 147t-139 60q-82 0 -139 -59t-57 -145z" />
<glyph unicode="h" d="M25 61q0 63 84 64h90v1001h-93q-82 0 -81 62q0 63 84 63h149q53 0 66 -18q16 -14 16 -66v-381q109 109 268 109q266 0 266 -295v-475h91q84 -1 84 -63t-82 -62h-314q-84 0 -84 62t84 63h80v465q0 94 -28 139q-31 41 -116 41t-167 -71t-82 -212v-362h90q84 -1 84 -63 t-82 -62h-326q-82 0 -81 61z" />
<glyph unicode="i" d="M160 62q0 62 84 63h248v633h-232q-84 0 -84 62t84 63h291q49 -1 65 -19t17 -65v-674h215q84 -1 84 -63t-84 -62h-604q-84 0 -84 62zM436 1137q0 43 31 71q29 31 72 31t71 -31q31 -28 31 -71t-30 -73q-31 -30 -73 -30t-72 30t-30 73z" />
<glyph unicode="j" d="M98 -311q0 43 27 69q26 25 60 25h3q36 0 66 -25q27 -31 27 -59t-2 -33q55 -8 114 -8q111 0 165 75t54 187v838h-266q-82 0 -82 62t84 63h324q53 0 65 -19q16 -14 17 -65v-889q0 -29 -9 -90q-31 -119 -102 -193q-103 -94 -260 -94q-285 0 -285 156zM551 1137q0 43 31 71 q30 31 72 31t71 -31q31 -28 31 -71t-30 -73t-73 -30t-71 31q-31 29 -31 72z" />
<glyph unicode="k" d="M43 63q0 61 82 62h100v1001h-100q-29 0 -41 3t-26 17t-15 44q0 61 82 61h133q53 0 66 -18q16 -14 16 -66v-721l332 312h-76q-82 0 -82 61q0 25 14 45q23 14 31 16t37 3h315q84 -1 84 -63t-84 -62h-71l-252 -236l305 -397h63q84 -1 84 -63t-84 -62h-241q-82 0 -82 61 q0 27 14 45q17 14 33 16t68 3l-244 317l-164 -151v-166h100q29 0 37 -2t31 -17q14 -20 14 -45q0 -61 -82 -61h-315q-29 0 -41 3t-27 17q-14 14 -14 43z" />
<glyph unicode="l" d="M119 62q0 62 84 63h264v1001h-266q-82 0 -82 62t84 63h323q49 0 68 -18q14 -18 14 -66v-1042h266q29 0 37 -2t31 -17q14 -20 14 -45q0 -61 -82 -61h-673q-82 0 -82 62z" />
<glyph unicode="m" d="M-8 61q0 51 53 62q12 2 64 2v633q-51 0 -70 3q-47 7 -47 60q0 61 84 62h65q29 0 41 -3q34 -9 41 -59q79 74 183 74t149 -107q76 106 203 107q68 0 104 -35q38 -31 58 -98t20 -141v-496q51 0 70 -3q47 -7 47 -61q0 -61 -84 -61h-154q-84 0 -84 63q0 62 87 62h3v477 q0 94 -18 131t-57 37q-66 0 -119 -74q-49 -78 -49 -204v-367q52 0 70 -3q46 -8 46 -61q0 -61 -84 -61h-153q-84 0 -84 61q0 25 16 45q17 14 29 16t45 3v477q0 94 -18 131t-58 37q-68 0 -118 -75t-50 -203v-367q51 0 70 -3q47 -7 47 -61q0 -61 -84 -61h-180q-84 0 -84 61z " />
<glyph unicode="n" d="M25 61q0 63 84 64h90v633h-93q-82 0 -81 61q0 63 84 64h149q57 0 70 -19q12 -23 12 -78q109 109 268 109q266 0 266 -295v-475h91q84 -1 84 -63t-82 -62h-314q-84 0 -84 62t84 63h80v465q0 94 -28 139q-31 41 -116 41t-167 -71t-82 -212v-362h90q84 -1 84 -63t-82 -62 h-326q-82 0 -81 61z" />
<glyph unicode="o" d="M117 442q0 192 125 324q123 135 295 135t294 -135q125 -130 125 -322t-125 -324t-295 -132t-295 131q-124 131 -124 323zM258 454q0 -138 82 -241q84 -100 197 -100t196 100q82 103 82 241t-82 230q-87 92 -197 92t-194 -92t-84 -230z" />
<glyph unicode="p" d="M25 -393q0 63 84 63h90v1088h-93q-82 0 -81 61q0 63 84 64h149h6q49 0 62 -17q14 -18 14 -71q110 100 268 100t273 -133q118 -127 118 -321t-127 -322q-123 -131 -294 -131q-135 0 -238 104v-422h90q84 0 84 -62t-82 -63h-326q-82 0 -81 62zM340 391q0 -92 61 -185 t172 -93t198 94t87 232q0 139 -79 235t-183 96t-180 -70t-76 -159v-150z" />
<glyph unicode="q" d="M82 444q0 190 131 320q131 131 295 131t268 -113q0 66 10 86q6 18 21 21q16 6 53 6t45 -23q12 -18 13 -61v-1141h100q29 0 37 -2t30 -16q15 -20 15 -45q0 -61 -82 -62h-342q-29 0 -42 3t-24 18q-16 10 -16 43q0 61 82 61h100v441q-112 -123 -278 -123t-293 131 q-123 135 -123 325zM223 440q0 -138 84 -232q84 -95 200 -95t193 92q76 94 76 192v80q0 111 -67 203q-72 90 -188 90t-207 -96t-91 -234z" />
<glyph unicode="r" d="M66 63q0 61 81 62h166v633h-166q-29 0 -41 3t-24 17q-16 10 -16 43q0 61 81 62h226q53 0 65 -19q16 -14 17 -65v-70q143 166 348 166q115 0 162 -47q18 -25 26 -41q6 -23 6 -53q0 -27 -25 -50q-26 -24 -62 -24t-60 27q-23 27 -27 63q-174 0 -271 -116t-97 -273v-256h227 q84 -1 84 -63t-84 -62h-535q-29 0 -41 3t-24 17q-16 10 -16 43z" />
<glyph unicode="s" d="M147 72v198q1 31 3 42q2 10 18 26t52 16t49 -13t22 -46q59 -182 262 -182q131 0 197 41q65 40 65 100q0 39 -24 70q-53 53 -195 76q-31 4 -75 12t-87 14q-158 38 -201 72q-31 20 -59 64q-27 42 -27 83q0 45 9 68q13 64 94 125q96 63 257 63t249 -43q12 43 61 43 q61 0 62 -84v-141q0 -31 -2 -43q-3 -13 -19 -27t-58 -14t-59 35q0 6 -4 35q-12 114 -202 114h-3q-131 0 -195 -34t-65 -83q0 -86 199 -112l139 -25q330 -53 330 -266q0 -37 -10 -66q-4 -27 -33 -71q-99 -131 -334 -131q-170 0 -278 78q-25 -78 -76 -78q-61 0 -62 84z" />
<glyph unicode="t" d="M51 820q0 62 84 63h178v168q0 31 2 43q3 12 19 26t57 14t52 -22q11 -23 12 -61v-168h336q29 0 39 -3q10 -4 26 -18t16 -43q0 -61 -81 -61h-336v-488q0 -35 4 -49q0 -16 14 -45t49 -49q39 -14 83 -14t73 10q28 4 64 43t36 80t4 51q0 13 16 27t51 14q34 0 50 -14 q17 -14 19 -26t2 -40q0 -127 -96 -199q-96 -71 -221 -71q-124 0 -208 65q-82 68 -82 205v500h-180q-82 0 -82 62z" />
<glyph unicode="u" d="M25 819q0 63 84 64h149q53 0 66 -19q16 -14 16 -65v-553q0 -39 4 -49q0 -18 15 -42q26 -42 123 -42t159 34q41 18 68 64q25 47 24 111v436h-92q-82 0 -82 62t84 63h150q49 -1 65 -19t16 -65v-674h93q82 -1 82 -63t-84 -62h-150q-29 0 -42 3t-23 17q-16 10 -17 46 q-102 -78 -244 -78q-291 0 -290 245v525h-93q-82 0 -81 61z" />
<glyph unicode="v" d="M49 819q0 48 45 62q8 2 37 2h240q29 0 37 -2t30 -17q14 -20 15 -45q0 -61 -82 -61h-58l224 -660l223 660h-58q-28 0 -40 3t-27 17q-14 14 -14 43q0 61 81 62h240q29 0 40 -3q10 -4 26 -18t16 -43q0 -61 -82 -61h-61l-236 -699q-10 -33 -32 -48q-23 -15 -33 -17t-43 -2 t-44 2t-34 18q-18 16 -31 49l-235 697h-62q-82 0 -82 61z" />
<glyph unicode="w" d="M33 820q1 30 17 46t69 17h235q31 0 40 -2t32 -17q14 -20 14 -45t-14 -43q-16 -14 -28 -16t-44 -2h-100l106 -611h2q2 12 46 168t51 170q21 45 77 45t74 -24q18 -29 57 -167t48 -192h2l102 611h-100q-31 0 -43 2t-28 17t-15 42q0 27 14 45q17 14 29 16t43 3h235 q86 0 86 -63q0 -51 -42 -59q-16 -3 -62 -3l-123 -688l-4 -16l-4 -16q-2 -7 -2 -9q-9 -37 -75 -37t-91 35q-8 18 -48 153t-46 209h-2q-11 -76 -49 -214t-57 -161q-20 -24 -71 -24q-25 0 -57 6q-16 4 -28 18q-8 16 -13 23l-129 721q-45 0 -61 3t-30 16q-13 13 -13 43z" />
<glyph unicode="x" d="M55 62q0 62 84 63h82l254 330l-242 303h-81q-84 0 -84 62t84 63h239q82 0 82 -62q0 -27 -14 -45q-15 -12 -29 -15t-55 -3l155 -207l152 207q-42 0 -58 3q-42 8 -42 60q0 61 82 62h239q84 -1 84 -63t-84 -62h-82l-233 -303l262 -330h82q84 -1 84 -63t-84 -62h-240 q-82 0 -82 61q0 31 17 45q10 12 26 16t60 3l-183 252l-176 -252q48 0 62 -3t30 -16q14 -18 15 -45q0 -61 -82 -61h-240q-84 0 -84 62z" />
<glyph unicode="y" d="M53 819q0 48 45 62q8 2 37 2h240q29 0 37 -2t30 -17q14 -20 15 -45q0 -61 -82 -61h-51l190 -492q41 -111 43 -121h2q12 57 53 177l148 436h-58q-28 0 -40 3t-27 17q-14 14 -14 43q0 61 81 62h240q29 0 40 -3q10 -4 26 -18t16 -43q0 -61 -82 -61h-61l-318 -932 q-4 -8 -10 -26t-18 -41l-23 -46q-32 -55 -62 -87t-81 -64q-57 -29 -121 -29t-113 49q-47 52 -47 106t25 79t65 25t64 -26q25 -24 24 -63l-10 -45q106 6 164 119q32 62 63 178l15 45q0 8 -9 27l-290 731h-64q-82 0 -82 61z" />
<glyph unicode="z" d="M68 66q0 32 9 45q9 14 36 41l639 606h-510v-53q0 -31 -2 -42t-18 -27t-58 -15q-41 0 -52 21t-12 63v94q0 51 16 67t68 17h697q31 0 42 -2q11 -1 26 -17t15 -47t-8 -45q-10 -14 -36 -41l-639 -606h550v78q1 31 3 42t18 26t56 15t55 -20q10 -27 10 -63v-119q0 -72 -45 -84 h-776q-31 0 -42 2q-10 2 -26 17t-16 47z" />
<glyph unicode="{" d="M117 627q0 33 17 47t36 14q150 0 223 33q53 20 62 49q12 25 12 88l2 356q41 207 401 207q31 0 43 -2q11 -2 27 -17t16 -45t-17 -45t-36 -16q-250 0 -289 -82q-6 -14 -6 -419q-2 -100 -119 -170q119 -63 119 -197v-330q0 -33 4 -49t31 -43q34 -43 244 -51q69 0 69 -61 q0 -23 -14 -46q-23 -14 -32 -16t-40 -2q-182 0 -297 61q-49 29 -75 72t-27 70q-4 16 -4 71v340q-4 109 -281 119q-70 0 -69 64z" />
<glyph unicode="|" d="M465 -74v1399q0 96 72 96t71 -96v-1399q0 -96 -72 -96t-71 96z" />
<glyph unicode="}" d="M117 -102q0 30 17 43q17 14 36 14q175 7 233 33q33 10 43 32q21 21 21 72v365q0 42 37 98q33 45 82 72q-119 63 -119 194v330q0 29 -4 53q-6 14 -30 42t-84 37t-165 13q-68 0 -67 62q0 31 16 43q13 14 27 17t43 3q186 0 299 -61q49 -27 74 -67t30 -72l2 -70v-342 q4 -109 279 -121q69 0 69 -63q0 -31 -17 -46t-36 -16q-147 0 -221 -33q-51 -20 -64 -47q-10 -31 -10 -90q0 -348 -2 -356q-41 -207 -403 -207q-29 0 -41 2t-29 16q-16 20 -16 50z" />
<glyph unicode="~" d="M180 575q0 31 96 103t164 72t138 -70q47 -43 63 -43q47 0 143 90q29 23 52 23t42 -20t19 -52q0 -31 -96 -103q-96 -71 -164 -71t-137 69q-45 43 -64 43q-47 0 -143 -90q-55 -43 -92 -2q-21 20 -21 51z" />
<glyph unicode="&#xa0;" />
<glyph unicode="&#xad;" d="M115 627q0 72 96 71h651q96 1 96 -71t-96 -72h-651q-96 0 -96 72z" />
<glyph unicode="&#x2000;" horiz-adv-x="710" />
<glyph unicode="&#x2001;" horiz-adv-x="1421" />
<glyph unicode="&#x2002;" horiz-adv-x="710" />
<glyph unicode="&#x2003;" horiz-adv-x="1421" />
<glyph unicode="&#x2004;" horiz-adv-x="473" />
<glyph unicode="&#x2005;" horiz-adv-x="355" />
<glyph unicode="&#x2006;" horiz-adv-x="236" />
<glyph unicode="&#x2007;" horiz-adv-x="236" />
<glyph unicode="&#x2008;" horiz-adv-x="177" />
<glyph unicode="&#x2009;" horiz-adv-x="284" />
<glyph unicode="&#x200a;" horiz-adv-x="78" />
<glyph unicode="&#x2010;" d="M115 627q0 72 96 71h651q96 1 96 -71t-96 -72h-651q-96 0 -96 72z" />
<glyph unicode="&#x2011;" d="M115 627q0 72 96 71h651q96 1 96 -71t-96 -72h-651q-96 0 -96 72z" />
<glyph unicode="&#x2012;" d="M115 627q0 72 96 71h651q96 1 96 -71t-96 -72h-651q-96 0 -96 72z" />
<glyph unicode="&#x2013;" horiz-adv-x="1256" d="M115 627q0 72 117 71h790q117 1 117 -71t-117 -72h-790q-117 0 -117 72z" />
<glyph unicode="&#x2014;" horiz-adv-x="2280" d="M115 627q0 72 233 71h1582q233 1 233 -71t-233 -72h-1582q-233 0 -233 72z" />
<glyph unicode="&#x202f;" horiz-adv-x="284" />
<glyph unicode="&#x205f;" horiz-adv-x="355" />
<glyph unicode="&#x25fc;" horiz-adv-x="885" d="M0 0v885h885v-885h-885z" />
</font>
</defs>
</svg>
